<?xml version="1.0" encoding="UTF-8" standalone="no"?>
<!-- Created with Inkscape (http://www.inkscape.org/) -->

<svg
   xmlns:dc="http://purl.org/dc/elements/1.1/"
   xmlns:cc="http://creativecommons.org/ns#"
   xmlns:rdf="http://www.w3.org/1999/02/22-rdf-syntax-ns#"
   xmlns:svg="http://www.w3.org/2000/svg"
   xmlns="http://www.w3.org/2000/svg"
   xmlns:sodipodi="http://sodipodi.sourceforge.net/DTD/sodipodi-0.dtd"
   xmlns:inkscape="http://www.inkscape.org/namespaces/inkscape"
   id="svg4403"
   version="1.1"
   inkscape:version="0.91 r13725"
   xml:space="preserve"
   width="52.5"
   height="52.5"
   viewBox="0 0 52.5 52.5"
   sodipodi:docname="LTV.svg"><metadata
     id="metadata4409"><rdf:RDF><cc:Work
         rdf:about=""><dc:format>image/svg+xml</dc:format><dc:type
           rdf:resource="http://purl.org/dc/dcmitype/StillImage" /><dc:title></dc:title></cc:Work></rdf:RDF></metadata><defs
     id="defs4407"><clipPath
       clipPathUnits="userSpaceOnUse"
       id="clipPath4429"><path
         d="M 0,42 42,42 42,0 0,0 0,42 Z"
         id="path4431"
         inkscape:connector-curvature="0" /></clipPath><clipPath
       clipPathUnits="userSpaceOnUse"
       id="clipPath4451"><path
         d="M 0,42 42,42 42,0 0,0 0,42 Z"
         id="path4453"
         inkscape:connector-curvature="0" /></clipPath><pattern
       y="0"
       x="0"
       height="6"
       width="6"
       patternUnits="userSpaceOnUse"
       id="EMFhbasepattern" /></defs><sodipodi:namedview
     pagecolor="#ffffff"
     bordercolor="#666666"
     borderopacity="1"
     objecttolerance="10"
     gridtolerance="10"
     guidetolerance="10"
     inkscape:pageopacity="0"
     inkscape:pageshadow="2"
     inkscape:window-width="1600"
     inkscape:window-height="838"
     id="namedview4405"
     showgrid="false"
     inkscape:zoom="16"
     inkscape:cx="25.507812"
     inkscape:cy="28.847656"
     inkscape:window-x="-8"
     inkscape:window-y="-8"
     inkscape:window-maximized="1"
     inkscape:current-layer="g4411" /><g
     id="g4411"
     inkscape:groupmode="layer"
     inkscape:label="PDI_Icon_Guide"
     transform="matrix(1.25,0,0,-1.25,0,52.5)"><path
       d="m 26.951,23.983 -11.902,0 12.95,-1.6 -1.048,2.4 z m 0,-3.383 -11.902,0 12.2,-1.3 -0.298,2.1 z m -8.701,-3.383 -3.201,0 5.25,-1.15 -2.049,1.95 z m 7.281,11.73 0,4.258 -13.379,0 0,-24.41 9.265,0 8.409,8.438 -0.038,11.714 z"
       style="fill:#eff9fe;fill-opacity:1;fill-rule:nonzero;stroke:none"
       id="path4413"
       inkscape:connector-curvature="0"
       sodipodi:nodetypes="ccccccccccccccccccccccc" /><g
       id="g4415"
       transform="translate(12.1518,8.7954)"><path
         d="m 0,0 0,24.409 13.379,0 0,-4.258 4.257,0 0.038,-11.714 1.696,1.569 -0.034,10.136 -1.709,1.71 -2.548,0 0,2.547 -1.711,1.71 -15.068,0 0,-27.809 9.127,0 L 9.265,0 0,0 Z"
         style="fill:#3d6480;fill-opacity:1;fill-rule:nonzero;stroke:none"
         id="path4417"
         inkscape:connector-curvature="0" /></g><text
       xml:space="preserve"
       style="font-style:normal;font-weight:normal;font-size:32px;line-height:68.99999976%;font-family:sans-serif;letter-spacing:0px;word-spacing:0px;fill:#3d6480;fill-opacity:1;stroke:none;stroke-width:1px;stroke-linecap:butt;stroke-linejoin:miter;stroke-opacity:1"
       x="12.3"
       y="-28.049999"
       id="text5009"
       sodipodi:linespacing="69%"
       transform="scale(1,-1)"><tspan
         sodipodi:role="line"
         id="tspan5011"
         x="12.3"
         y="-28.049999"
         style="font-style:normal;font-variant:normal;font-weight:normal;font-stretch:normal;font-size:7px;line-height:68.99999976%;font-family:Miriam;-inkscape-font-specification:Miriam;letter-spacing:-0.048px;fill:#3d6480;fill-opacity:1">0101</tspan><tspan
         sodipodi:role="line"
         x="12.3"
         y="-23.219999"
         id="tspan5013"
         style="font-style:normal;font-variant:normal;font-weight:normal;font-stretch:normal;font-size:7px;line-height:68.99999976%;font-family:Miriam;-inkscape-font-specification:Miriam;letter-spacing:-0.048px;fill:#3d6480;fill-opacity:1">1010</tspan><tspan
         sodipodi:role="line"
         x="12.3"
         y="-18.389999"
         id="tspan5015"
         style="font-style:normal;font-variant:normal;font-weight:normal;font-stretch:normal;font-size:7px;line-height:68.99999976%;font-family:Miriam;-inkscape-font-specification:Miriam;letter-spacing:-0.048px;fill:#3d6480;fill-opacity:1">0101</tspan><tspan
         sodipodi:role="line"
         x="12.3"
         y="-13.559999"
         id="tspan5017"
         style="font-style:normal;font-variant:normal;font-weight:normal;font-stretch:normal;font-size:7px;line-height:68.99999976%;font-family:Miriam;-inkscape-font-specification:Miriam;letter-spacing:-0.048px;fill:#3d6480;fill-opacity:1">1010</tspan></text>
<path
       inkscape:connector-curvature="0"
       id="path5046"
       d="M 34.183902,13.414722 40.014722,7.4658092 34.183902,1.585278 28.285278,7.4658092 Z"
       style="fill:#3e6480;fill-opacity:1;fill-rule:nonzero;stroke:none" /><path
       inkscape:connector-curvature="0"
       id="path5048"
       d="m 33.980499,7.3974318 0,-2.1881034 c -0.474596,0 -0.813601,0.2051365 -0.8814,0.5470199 -0.203402,0.068365 -0.203402,0.3419075 -0.203402,0.7521683 l -0.745803,0 c 0,-0.4786505 0.135615,-0.8205459 0.27119,-1.0940597 0.271189,-0.5470239 0.813602,-0.8205378 1.627198,-0.8205378 l 0,-0.8205175 0.406806,0 0,0.8205175 c 0.406804,0.068365 0.8814,0.1367711 1.084803,0.3419076 0.406804,0.2735017 0.610207,0.7521602 0.610207,1.4359471 0,0.4786422 -0.203403,0.9572967 -0.542404,1.0940516 -0.203402,0.2735018 -0.6102,0.4102649 -1.288205,0.5470238 l 0,2.0513518 c 0.406804,0 0.678005,-0.205136 0.813597,-0.4786494 0.135615,-0.2051368 0.203402,-0.3419076 0.203402,-0.5470204 l 0.74581,0 c 0,0.478643 -0.203402,0.8205338 -0.474604,1.0940518 -0.27119,0.341867 -0.745802,0.54702 -1.28821,0.54702 l 0,0.547032 -0.339016,0 0,-0.547032 c -0.542397,0 -1.017,-0.205137 -1.288206,-0.54702 -0.27119,-0.273501 -0.406793,-0.6154088 -0.406793,-1.0940518 0,-0.4786545 0.135615,-0.8205461 0.406793,-1.0940635 0.271189,-0.2735018 0.67801,-0.4786423 1.288206,-0.5470197 l 0,0 z"
       style="fill:#ffffff;fill-opacity:1;fill-rule:nonzero;stroke:none" /><path
       inkscape:connector-curvature="0"
       id="path5050"
       d="m 34.319501,5.1409469 0,2.1881074 c 0.406804,-0.1367711 0.67801,-0.2051365 0.745801,-0.2735018 0.27119,-0.2051365 0.339018,-0.4786424 0.339018,-0.8205378 0,-0.2051364 -0.06779,-0.4102729 -0.135616,-0.5470278 -0.135614,-0.410281 -0.4746,-0.4786585 -0.949203,-0.54704 l 0,0 z"
       style="fill:#3e6480;fill-opacity:1;fill-rule:nonzero;stroke:none" /><path
       inkscape:connector-curvature="0"
       id="path5052"
       d="m 33.980499,10.064185 c -0.338977,0 -0.610199,-0.13677 -0.813601,-0.273501 -0.06779,-0.2735018 -0.203402,-0.4786512 -0.203402,-0.6837868 0,-0.2735017 0.135615,-0.4102656 0.27119,-0.6154013 0.203402,-0.2051368 0.474604,-0.2735016 0.745797,-0.3419077 l 0,1.9145968 z"
       style="fill:#3e6480;fill-opacity:1;fill-rule:nonzero;stroke:none" /></g></svg>